<svg xmlns="http://www.w3.org/2000/svg" viewBox="0 0 1200.36 725.29"><defs><style>.cls-1{stroke-dasharray:0 0 19 27;}.cls-1,.cls-2,.cls-3,.cls-4,.cls-5,.cls-6,.cls-7{stroke-linecap:round;stroke-linejoin:round;}.cls-1,.cls-2,.cls-3,.cls-4,.cls-5,.cls-6,.cls-7,.cls-8,.cls-9{stroke-width:4px;}.cls-1,.cls-2,.cls-5,.cls-6,.cls-7{fill:none;}.cls-1,.cls-5{stroke:#4499d3;}.cls-10{fill:#fff;}.cls-2,.cls-3,.cls-4,.cls-9{stroke:#052d49;}.cls-11{fill:#baddef;}.cls-3{fill:#e72047;}.cls-12{fill:#052d49;}.cls-13{fill:#052e49;}.cls-4{fill:#4499d3;}.cls-6{stroke:#bbdef0;}.cls-14,.cls-9{fill:#fbcd0f;}.cls-7{stroke:#e91a44;}.cls-8{fill:#459ad5;stroke:#052e49;}.cls-8,.cls-9{stroke-miterlimit:10;}</style></defs><g id="Layer_4"><rect class="cls-11" x="1.59" y="463.78" width="1197.18" height="261.5" rx="8.78" ry="8.78"></rect><rect class="cls-11" x="1.59" y="128.8" width="1197.18" height="261.5" rx="8.78" ry="8.78"></rect></g><g id="Artwork"><line class="cls-1" x1="7.59" y1="595.35" x2="1192.95" y2="595.35"></line><line class="cls-1" x1="7.59" y1="683.75" x2="1192.95" y2="683.75"></line><line class="cls-1" x1="7.59" y1="507.1" x2="1192.95" y2="507.1"></line><g><rect class="cls-12" x="234.75" y="629.25" width="4.17" height="21.43"></rect><rect class="cls-9" x="183.44" y="622.01" width="50.22" height="35.91" rx="2.71" ry="2.71"></rect><rect class="cls-9" x="240.45" y="622.01" width="33.34" height="35.91" rx="2.58" ry="2.58"></rect><rect class="cls-9" x="240.45" y="629.25" width="18.68" height="21.43"></rect></g><g><path class="cls-3" d="m116.05,623.84h40.91c8.62,0,15.62,7,15.62,15.62v.36c0,8.62-7,15.62-15.62,15.62h-40.91c-6.13,0-11.1-4.97-11.1-11.1v-9.4c0-6.13,4.97-11.1,11.1-11.1Z"></path><rect class="cls-3" x="123.96" y="629.08" width="21.12" height="21.12" rx="3.14" ry="3.14"></rect><line class="cls-3" x1="124.09" y1="649.79" x2="116.59" y2="655.14"></line><polyline class="cls-3" points="144.69 649.49 154.74 655.14 154.74 624.15"></polyline><line class="cls-3" x1="144.78" y1="630.2" x2="153.75" y2="625.13"></line><line class="cls-3" x1="124.09" y1="629.52" x2="116.59" y2="624.42"></line></g><g><rect class="cls-12" x="501.98" y="629.25" width="4.17" height="21.43"></rect><rect class="cls-9" x="450.66" y="622.01" width="50.22" height="35.91" rx="2.71" ry="2.71"></rect><rect class="cls-9" x="507.67" y="622.01" width="33.34" height="35.91" rx="2.58" ry="2.58"></rect><rect class="cls-9" x="507.67" y="629.25" width="18.68" height="21.43"></rect></g><g><path class="cls-3" d="m386.27,623.84h40.91c8.62,0,15.62,7,15.62,15.62v.36c0,8.62-7,15.62-15.62,15.62h-40.91c-6.13,0-11.1-4.97-11.1-11.1v-9.4c0-6.13,4.97-11.1,11.1-11.1Z"></path><rect class="cls-3" x="394.19" y="629.08" width="21.12" height="21.12" rx="3.14" ry="3.14"></rect><line class="cls-3" x1="394.31" y1="649.79" x2="386.81" y2="655.14"></line><polyline class="cls-3" points="414.91 649.49 424.96 655.14 424.96 624.15"></polyline><line class="cls-3" x1="415" y1="630.2" x2="423.97" y2="625.13"></line><line class="cls-3" x1="394.31" y1="629.52" x2="386.81" y2="624.42"></line></g><g><rect class="cls-4" x="282.81" y="621.17" width="82.14" height="36.22" rx="5.25" ry="5.25"></rect><line class="cls-2" x1="352.53" y1="622.76" x2="352.53" y2="655.81"></line><line class="cls-2" x1="342.71" y1="623.14" x2="342.71" y2="656.19"></line><line class="cls-2" x1="342.77" y1="627.57" x2="352.53" y2="621.94"></line><line class="cls-2" x1="342.99" y1="651.4" x2="351.7" y2="656.39"></line><line class="cls-2" x1="292.35" y1="628.41" x2="335.02" y2="628.41"></line><line class="cls-2" x1="292.35" y1="639.28" x2="335.02" y2="639.28"></line><line class="cls-2" x1="292.35" y1="650.02" x2="335.02" y2="650.02"></line></g><g><rect class="cls-12" x="772.28" y="629.25" width="4.17" height="21.43"></rect><rect class="cls-9" x="720.96" y="622.01" width="50.22" height="35.91" rx="2.71" ry="2.71"></rect><rect class="cls-9" x="777.97" y="622.01" width="33.34" height="35.91" rx="2.58" ry="2.58"></rect><rect class="cls-9" x="777.97" y="629.25" width="18.68" height="21.43"></rect></g><g><path class="cls-3" d="m653.57,623.84h40.91c8.62,0,15.62,7,15.62,15.62v.36c0,8.62-7,15.62-15.62,15.62h-40.91c-6.13,0-11.1-4.97-11.1-11.1v-9.4c0-6.13,4.97-11.1,11.1-11.1Z"></path><rect class="cls-3" x="661.48" y="629.08" width="21.12" height="21.12" rx="3.14" ry="3.14"></rect><line class="cls-3" x1="661.61" y1="649.79" x2="654.11" y2="655.14"></line><polyline class="cls-3" points="682.21 649.49 692.26 655.14 692.26 624.15"></polyline><line class="cls-3" x1="682.3" y1="630.2" x2="691.27" y2="625.13"></line><line class="cls-3" x1="661.61" y1="629.52" x2="654.11" y2="624.42"></line></g><g><rect class="cls-4" x="551.11" y="621.17" width="82.14" height="36.22" rx="5.25" ry="5.25"></rect><line class="cls-2" x1="620.83" y1="622.76" x2="620.83" y2="655.81"></line><line class="cls-2" x1="611" y1="623.14" x2="611" y2="656.19"></line><line class="cls-2" x1="611.07" y1="627.57" x2="620.83" y2="621.94"></line><line class="cls-2" x1="611.29" y1="651.4" x2="620" y2="656.39"></line><line class="cls-2" x1="560.65" y1="628.41" x2="603.32" y2="628.41"></line><line class="cls-2" x1="560.65" y1="639.28" x2="603.32" y2="639.28"></line><line class="cls-2" x1="560.65" y1="650.02" x2="603.32" y2="650.02"></line></g><g><rect class="cls-12" x="1057.75" y="629.25" width="4.17" height="21.43"></rect><rect class="cls-9" x="1006.44" y="622.01" width="50.22" height="35.91" rx="2.71" ry="2.71"></rect><rect class="cls-9" x="1063.45" y="622.01" width="33.34" height="35.91" rx="2.58" ry="2.58"></rect><rect class="cls-9" x="1063.45" y="629.25" width="18.68" height="21.43"></rect></g><g><path class="cls-3" d="m939.05,623.84h40.91c8.62,0,15.62,7,15.62,15.62v.36c0,8.62-7,15.62-15.62,15.62h-40.91c-6.13,0-11.1-4.97-11.1-11.1v-9.4c0-6.13,4.97-11.1,11.1-11.1Z"></path><rect class="cls-3" x="946.96" y="629.08" width="21.12" height="21.12" rx="3.14" ry="3.14"></rect><line class="cls-3" x1="947.09" y1="649.79" x2="939.59" y2="655.14"></line><polyline class="cls-3" points="967.69 649.49 977.74 655.14 977.74 624.15"></polyline><line class="cls-3" x1="967.78" y1="630.2" x2="976.75" y2="625.13"></line><line class="cls-3" x1="947.09" y1="629.52" x2="939.59" y2="624.42"></line></g><g><rect class="cls-4" x="830.59" y="621.17" width="82.14" height="36.22" rx="5.25" ry="5.25"></rect><line class="cls-2" x1="900.31" y1="622.76" x2="900.31" y2="655.81"></line><line class="cls-2" x1="890.48" y1="623.14" x2="890.48" y2="656.19"></line><line class="cls-2" x1="890.54" y1="627.57" x2="900.31" y2="621.94"></line><line class="cls-2" x1="890.77" y1="651.4" x2="899.48" y2="656.39"></line><line class="cls-2" x1="840.13" y1="628.41" x2="882.8" y2="628.41"></line><line class="cls-2" x1="840.13" y1="639.28" x2="882.8" y2="639.28"></line><line class="cls-2" x1="840.13" y1="650.02" x2="882.8" y2="650.02"></line></g><g><rect class="cls-4" x="1108.81" y="621.17" width="82.14" height="36.22" rx="5.25" ry="5.25"></rect><line class="cls-2" x1="1178.53" y1="622.76" x2="1178.53" y2="655.81"></line><line class="cls-2" x1="1168.71" y1="623.14" x2="1168.71" y2="656.19"></line><line class="cls-2" x1="1168.77" y1="627.57" x2="1178.53" y2="621.94"></line><line class="cls-2" x1="1168.99" y1="651.4" x2="1177.7" y2="656.39"></line><line class="cls-2" x1="1118.35" y1="628.41" x2="1161.02" y2="628.41"></line><line class="cls-2" x1="1118.35" y1="639.28" x2="1161.02" y2="639.28"></line><line class="cls-2" x1="1118.35" y1="650.02" x2="1161.02" y2="650.02"></line></g><g><rect class="cls-12" x="335.04" y="540.09" width="4.17" height="21.43"></rect><rect class="cls-9" x="283.73" y="532.85" width="50.22" height="35.91" rx="2.71" ry="2.71"></rect><rect class="cls-9" x="340.74" y="532.85" width="33.34" height="35.91" rx="2.58" ry="2.58"></rect><rect class="cls-9" x="340.74" y="540.09" width="18.68" height="21.43"></rect></g><g><path class="cls-3" d="m216.34,534.68h40.91c8.62,0,15.62,7,15.62,15.62v.36c0,8.62-7,15.62-15.62,15.62h-40.91c-6.13,0-11.1-4.97-11.1-11.1v-9.4c0-6.13,4.97-11.1,11.1-11.1Z"></path><rect class="cls-3" x="224.25" y="539.92" width="21.12" height="21.12" rx="3.14" ry="3.14"></rect><line class="cls-3" x1="224.38" y1="560.63" x2="216.88" y2="565.97"></line><polyline class="cls-3" points="244.98 560.33 255.03 565.97 255.03 534.99"></polyline><line class="cls-3" x1="245.06" y1="541.04" x2="254.04" y2="535.97"></line><line class="cls-3" x1="224.38" y1="540.36" x2="216.88" y2="535.26"></line></g><g><rect class="cls-4" x="107.88" y="532.01" width="82.14" height="36.22" rx="5.25" ry="5.25"></rect><line class="cls-2" x1="177.6" y1="533.6" x2="177.6" y2="566.64"></line><line class="cls-2" x1="167.77" y1="533.98" x2="167.77" y2="567.03"></line><line class="cls-2" x1="167.83" y1="538.41" x2="177.6" y2="532.77"></line><line class="cls-2" x1="168.05" y1="562.24" x2="176.77" y2="567.22"></line><line class="cls-2" x1="117.42" y1="539.25" x2="160.09" y2="539.25"></line><line class="cls-2" x1="117.42" y1="550.12" x2="160.09" y2="550.12"></line><line class="cls-2" x1="117.42" y1="560.86" x2="160.09" y2="560.86"></line></g><g><rect class="cls-4" x="9.61" y="621.86" width="82.14" height="36.22" rx="5.25" ry="5.25"></rect><line class="cls-2" x1="79.32" y1="623.45" x2="79.32" y2="656.49"></line><line class="cls-2" x1="69.5" y1="623.83" x2="69.5" y2="656.88"></line><line class="cls-2" x1="69.56" y1="628.26" x2="79.32" y2="622.62"></line><line class="cls-2" x1="69.78" y1="652.09" x2="78.49" y2="657.07"></line><line class="cls-2" x1="19.15" y1="629.1" x2="61.81" y2="629.1"></line><line class="cls-2" x1="19.15" y1="639.97" x2="61.81" y2="639.97"></line><line class="cls-2" x1="19.15" y1="650.71" x2="61.81" y2="650.71"></line></g><g><rect class="cls-12" x="615.34" y="540.09" width="4.17" height="21.43"></rect><rect class="cls-9" x="564.03" y="532.85" width="50.22" height="35.91" rx="2.71" ry="2.71"></rect><rect class="cls-9" x="621.04" y="532.85" width="33.34" height="35.91" rx="2.58" ry="2.58"></rect><rect class="cls-9" x="621.04" y="540.09" width="18.68" height="21.43"></rect></g><g><path class="cls-3" d="m496.64,534.68h40.91c8.62,0,15.62,7,15.62,15.62v.36c0,8.62-7,15.62-15.62,15.62h-40.91c-6.13,0-11.1-4.97-11.1-11.1v-9.4c0-6.13,4.97-11.1,11.1-11.1Z"></path><rect class="cls-3" x="504.55" y="539.92" width="21.12" height="21.12" rx="3.14" ry="3.14"></rect><line class="cls-3" x1="504.67" y1="560.63" x2="497.17" y2="565.97"></line><polyline class="cls-3" points="525.27 560.33 535.33 565.97 535.33 534.99"></polyline><line class="cls-3" x1="525.36" y1="541.04" x2="534.34" y2="535.97"></line><line class="cls-3" x1="504.67" y1="540.36" x2="497.17" y2="535.26"></line></g><g><rect class="cls-4" x="388.18" y="532.01" width="82.14" height="36.22" rx="5.25" ry="5.25"></rect><line class="cls-2" x1="457.9" y1="533.6" x2="457.9" y2="566.64"></line><line class="cls-2" x1="448.07" y1="533.98" x2="448.07" y2="567.03"></line><line class="cls-2" x1="448.13" y1="538.41" x2="457.9" y2="532.77"></line><line class="cls-2" x1="448.35" y1="562.24" x2="457.06" y2="567.22"></line><line class="cls-2" x1="397.72" y1="539.25" x2="440.38" y2="539.25"></line><line class="cls-2" x1="397.72" y1="550.12" x2="440.38" y2="550.12"></line><line class="cls-2" x1="397.72" y1="560.86" x2="440.38" y2="560.86"></line></g><g><rect class="cls-12" x="882.95" y="540.09" width="4.17" height="21.43"></rect><rect class="cls-9" x="831.63" y="532.85" width="50.22" height="35.91" rx="2.71" ry="2.71"></rect><rect class="cls-9" x="888.64" y="532.85" width="33.34" height="35.91" rx="2.58" ry="2.58"></rect><rect class="cls-9" x="888.64" y="540.09" width="18.68" height="21.43"></rect></g><g><path class="cls-3" d="m766.24,534.68h40.91c8.62,0,15.62,7,15.62,15.62v.36c0,8.62-7,15.62-15.62,15.62h-40.91c-6.13,0-11.1-4.97-11.1-11.1v-9.4c0-6.13,4.97-11.1,11.1-11.1Z"></path><rect class="cls-3" x="774.16" y="539.92" width="21.12" height="21.12" rx="3.14" ry="3.14"></rect><line class="cls-3" x1="774.28" y1="560.63" x2="766.78" y2="565.97"></line><polyline class="cls-3" points="794.88 560.33 804.93 565.97 804.93 534.99"></polyline><line class="cls-3" x1="794.97" y1="541.04" x2="803.94" y2="535.97"></line><line class="cls-3" x1="774.28" y1="540.36" x2="766.78" y2="535.26"></line></g><g><rect class="cls-4" x="665.5" y="532.01" width="82.14" height="36.22" rx="5.25" ry="5.25"></rect><line class="cls-2" x1="735.21" y1="533.6" x2="735.21" y2="566.64"></line><line class="cls-2" x1="725.39" y1="533.98" x2="725.39" y2="567.03"></line><line class="cls-2" x1="725.45" y1="538.41" x2="735.21" y2="532.77"></line><line class="cls-2" x1="725.67" y1="562.24" x2="734.38" y2="567.22"></line><line class="cls-2" x1="675.04" y1="539.25" x2="717.7" y2="539.25"></line><line class="cls-2" x1="675.04" y1="550.12" x2="717.7" y2="550.12"></line><line class="cls-2" x1="675.04" y1="560.86" x2="717.7" y2="560.86"></line></g><g><rect class="cls-12" x="1152.17" y="540.09" width="4.17" height="21.43"></rect><rect class="cls-9" x="1100.85" y="532.85" width="50.22" height="35.91" rx="2.71" ry="2.71"></rect><rect class="cls-9" x="1157.86" y="532.85" width="33.34" height="35.91" rx="2.58" ry="2.58"></rect><rect class="cls-9" x="1157.86" y="540.09" width="18.68" height="21.43"></rect></g><g><rect class="cls-12" x="57.4" y="540.09" width="4.17" height="21.43"></rect><rect class="cls-9" x="6.09" y="532.85" width="50.22" height="35.91" rx="2.71" ry="2.71"></rect><rect class="cls-9" x="63.1" y="532.85" width="33.34" height="35.91" rx="2.58" ry="2.58"></rect><rect class="cls-9" x="63.1" y="540.09" width="18.68" height="21.43"></rect></g><g><path class="cls-3" d="m1035.46,534.68h40.91c8.62,0,15.62,7,15.62,15.62v.36c0,8.62-7,15.62-15.62,15.62h-40.91c-6.13,0-11.1-4.97-11.1-11.1v-9.4c0-6.13,4.97-11.1,11.1-11.1Z"></path><rect class="cls-3" x="1043.38" y="539.92" width="21.12" height="21.12" rx="3.14" ry="3.14"></rect><line class="cls-3" x1="1043.5" y1="560.63" x2="1036" y2="565.97"></line><polyline class="cls-3" points="1064.1 560.33 1074.15 565.97 1074.15 534.99"></polyline><line class="cls-3" x1="1064.19" y1="541.04" x2="1073.17" y2="535.97"></line><line class="cls-3" x1="1043.5" y1="540.36" x2="1036" y2="535.26"></line></g><g><rect class="cls-4" x="932.01" y="532.01" width="82.14" height="36.22" rx="5.25" ry="5.25"></rect><line class="cls-2" x1="1001.72" y1="533.6" x2="1001.72" y2="566.64"></line><line class="cls-2" x1="991.9" y1="533.98" x2="991.9" y2="567.03"></line><line class="cls-2" x1="991.96" y1="538.41" x2="1001.72" y2="532.77"></line><line class="cls-2" x1="992.18" y1="562.24" x2="1000.89" y2="567.22"></line><line class="cls-2" x1="941.54" y1="539.25" x2="984.21" y2="539.25"></line><line class="cls-2" x1="941.54" y1="550.12" x2="984.21" y2="550.12"></line><line class="cls-2" x1="941.54" y1="560.86" x2="984.21" y2="560.86"></line></g><line class="cls-1" x1="7.59" y1="265.51" x2="1193.2" y2="265.51"></line><line class="cls-1" x1="7.59" y1="353.91" x2="1193.2" y2="353.91"></line><line class="cls-1" x1="7.59" y1="177.26" x2="1193.2" y2="177.26"></line><g><rect class="cls-12" x="307.87" y="299.42" width="4.17" height="21.43"></rect><rect class="cls-9" x="256.55" y="292.18" width="50.22" height="35.91" rx="2.71" ry="2.71"></rect><rect class="cls-9" x="313.56" y="292.18" width="33.34" height="35.91" rx="2.58" ry="2.58"></rect><rect class="cls-9" x="313.56" y="299.42" width="18.68" height="21.43"></rect></g><g><path class="cls-3" d="m157.07,294h40.91c8.62,0,15.62,7,15.62,15.62v.36c0,8.62-7,15.62-15.62,15.62h-40.91c-6.13,0-11.1-4.97-11.1-11.1v-9.4c0-6.13,4.97-11.1,11.1-11.1Z"></path><rect class="cls-3" x="164.99" y="299.24" width="21.12" height="21.12" rx="3.14" ry="3.14"></rect><line class="cls-3" x1="165.11" y1="319.96" x2="157.61" y2="325.3"></line><polyline class="cls-3" points="185.71 319.65 195.76 325.3 195.76 294.31"></polyline><line class="cls-3" x1="185.8" y1="300.36" x2="194.77" y2="295.29"></line><line class="cls-3" x1="165.11" y1="299.69" x2="157.61" y2="294.59"></line></g><g><rect class="cls-12" x="1009.76" y="299.42" width="4.17" height="21.43"></rect><rect class="cls-9" x="958.44" y="292.18" width="50.22" height="35.91" rx="2.71" ry="2.71"></rect><rect class="cls-9" x="1015.45" y="292.18" width="33.34" height="35.91" rx="2.58" ry="2.58"></rect><rect class="cls-9" x="1015.45" y="299.42" width="18.68" height="21.43"></rect></g><g><path class="cls-3" d="m815.68,294h40.91c8.62,0,15.62,7,15.62,15.62v.36c0,8.62-7,15.62-15.62,15.62h-40.91c-6.13,0-11.1-4.97-11.1-11.1v-9.4c0-6.13,4.97-11.1,11.1-11.1Z"></path><rect class="cls-3" x="823.6" y="299.24" width="21.12" height="21.12" rx="3.14" ry="3.14"></rect><line class="cls-3" x1="823.72" y1="319.96" x2="816.22" y2="325.3"></line><polyline class="cls-3" points="844.32 319.65 854.37 325.3 854.37 294.31"></polyline><line class="cls-3" x1="844.41" y1="300.36" x2="853.38" y2="295.29"></line><line class="cls-3" x1="823.72" y1="299.69" x2="816.22" y2="294.59"></line></g><g><rect class="cls-4" x="572.61" y="291.34" width="82.14" height="36.22" rx="5.25" ry="5.25"></rect><line class="cls-2" x1="642.33" y1="292.92" x2="642.33" y2="325.97"></line><line class="cls-2" x1="632.51" y1="293.3" x2="632.51" y2="326.35"></line><line class="cls-2" x1="632.57" y1="297.73" x2="642.33" y2="292.1"></line><line class="cls-2" x1="632.79" y1="321.56" x2="641.5" y2="326.55"></line><line class="cls-2" x1="582.15" y1="298.58" x2="624.82" y2="298.58"></line><line class="cls-2" x1="582.15" y1="309.45" x2="624.82" y2="309.45"></line><line class="cls-2" x1="582.15" y1="320.18" x2="624.82" y2="320.18"></line></g><g><rect class="cls-12" x="726.97" y="210.26" width="4.17" height="21.43"></rect><rect class="cls-9" x="675.66" y="203.02" width="50.22" height="35.91" rx="2.71" ry="2.71"></rect><rect class="cls-9" x="732.67" y="203.02" width="33.34" height="35.91" rx="2.58" ry="2.58"></rect><rect class="cls-9" x="732.67" y="210.26" width="18.68" height="21.43"></rect></g><g><path class="cls-3" d="m429.05,204.84h40.91c8.62,0,15.62,7,15.62,15.62v.36c0,8.62-7,15.62-15.62,15.62h-40.91c-6.13,0-11.1-4.97-11.1-11.1v-9.4c0-6.13,4.97-11.1,11.1-11.1Z"></path><rect class="cls-3" x="436.96" y="210.08" width="21.12" height="21.12" rx="3.14" ry="3.14"></rect><line class="cls-3" x1="437.09" y1="230.79" x2="429.59" y2="236.14"></line><polyline class="cls-3" points="457.69 230.49 467.74 236.14 467.74 205.15"></polyline><line class="cls-3" x1="457.78" y1="211.2" x2="466.75" y2="206.13"></line><line class="cls-3" x1="437.09" y1="210.52" x2="429.59" y2="205.43"></line></g><g><rect class="cls-4" x="81.01" y="202.17" width="82.14" height="36.22" rx="5.25" ry="5.25"></rect><line class="cls-2" x1="150.72" y1="203.76" x2="150.72" y2="236.81"></line><line class="cls-2" x1="140.9" y1="204.14" x2="140.9" y2="237.19"></line><line class="cls-2" x1="140.96" y1="208.57" x2="150.72" y2="202.94"></line><line class="cls-2" x1="141.18" y1="232.4" x2="149.89" y2="237.39"></line><line class="cls-2" x1="90.54" y1="209.42" x2="133.21" y2="209.42"></line><line class="cls-2" x1="90.54" y1="220.28" x2="133.21" y2="220.28"></line><line class="cls-2" x1="90.54" y1="231.02" x2="133.21" y2="231.02"></line></g><g><path class="cls-3" d="m1087.45,204.84h40.91c8.62,0,15.62,7,15.62,15.62v.36c0,8.62-7,15.62-15.62,15.62h-40.91c-6.13,0-11.1-4.97-11.1-11.1v-9.4c0-6.13,4.97-11.1,11.1-11.1Z"></path><rect class="cls-3" x="1095.36" y="210.08" width="21.12" height="21.12" rx="3.14" ry="3.14"></rect><line class="cls-3" x1="1095.49" y1="230.79" x2="1087.99" y2="236.14"></line><polyline class="cls-3" points="1116.09 230.49 1126.14 236.14 1126.14 205.15"></polyline><line class="cls-3" x1="1116.18" y1="211.2" x2="1125.15" y2="206.13"></line><line class="cls-3" x1="1095.49" y1="210.52" x2="1087.99" y2="205.43"></line></g><g><rect class="cls-4" x="829.68" y="202.17" width="82.14" height="36.22" rx="5.25" ry="5.25"></rect><line class="cls-2" x1="899.4" y1="203.76" x2="899.4" y2="236.81"></line><line class="cls-2" x1="889.57" y1="204.14" x2="889.57" y2="237.19"></line><line class="cls-2" x1="889.63" y1="208.57" x2="899.4" y2="202.94"></line><line class="cls-2" x1="889.86" y1="232.4" x2="898.57" y2="237.39"></line><line class="cls-2" x1="839.22" y1="209.42" x2="881.89" y2="209.42"></line><line class="cls-2" x1="839.22" y1="220.28" x2="881.89" y2="220.28"></line><line class="cls-2" x1="839.22" y1="231.02" x2="881.89" y2="231.02"></line></g><rect class="cls-8" x="334.94" y="438.68" width="530.49" height="45.02" rx="4.88" ry="4.88"></rect><rect class="cls-8" x="305.94" y="104.85" width="588.49" height="45.02" rx="4.88" ry="4.88"></rect><rect class="cls-13" x="211.89" y="-2.27" width="761.16" height="71.27" rx="7.85" ry="7.85"></rect><g><path class="cls-10" d="m267.58,45.91v-3.58h2.6v-14.96h-2.6v-3.58h9.73v3.58h-2.6v14.96h2.6v3.58h-9.73Z"></path><path class="cls-10" d="m280.9,45.91v-22.13h13.31v3.96h-8.78v5.01h7.45v3.93h-7.45v9.23h-4.53Z"></path><path class="cls-10" d="m309.12,45.91v-8.34l-6.75-13.79h4.95l3.93,9.07h.51l3.8-9.07h4.85l-6.75,13.79v8.34h-4.53Z"></path><path class="cls-10" d="m320.7,34.84c0-8.27,3.49-11.44,8.78-11.44s8.78,3.17,8.78,11.44-3.49,11.44-8.78,11.44-8.78-3.17-8.78-11.44Zm12.74,2.88v-5.77c0-3.01-1.46-4.56-3.96-4.56s-3.96,1.55-3.96,4.56v5.77c0,3.01,1.46,4.57,3.96,4.57s3.96-1.55,3.96-4.57Z"></path><path class="cls-10" d="m346.22,23.78v14.36c0,2.92.86,4.12,3.42,4.12s3.42-1.2,3.42-4.12v-14.36h4.53v13.76c0,6.21-2.06,8.75-7.96,8.75s-7.96-2.54-7.96-8.75v-13.76h4.53Z"></path><path class="cls-10" d="m366.33,45.91h-4.53v-22.13h9.57c3.96,0,6.09,2.69,6.09,6.88,0,3.23-1.27,5.58-3.65,6.47l3.87,8.78h-4.91l-3.42-8.37h-3.01v8.37Zm4.47-12.14c1.2,0,1.96-.54,1.96-2.06v-1.9c0-1.52-.76-2.06-1.96-2.06h-4.47v6.02h4.47Z"></path><path class="cls-10" d="m387.13,45.91v-3.58h2.6v-14.96h-2.6v-3.58h9.73v3.58h-2.6v14.96h2.6v3.58h-9.73Z"></path><path class="cls-10" d="m406.34,34.05l-1.39-3.52h-.51l.25,3.71v11.67h-4.25v-22.13h4.95l5.58,11.86,1.39,3.52h.51l-.25-3.71v-11.67h4.25v22.13h-4.95l-5.58-11.86Z"></path><path class="cls-10" d="m429.65,27.74v18.17h-4.53v-18.17h-5.29v-3.96h15.12v3.96h-5.29Z"></path><path class="cls-10" d="m437.9,45.91v-22.13h13.69v3.96h-9.16v5.01h7.77v3.93h-7.77v5.26h9.16v3.96h-13.69Z"></path><path class="cls-10" d="m459.84,45.91h-4.53v-22.13h9.57c3.96,0,6.09,2.69,6.09,6.88,0,3.23-1.27,5.58-3.65,6.47l3.87,8.78h-4.91l-3.42-8.37h-3.01v8.37Zm4.47-12.14c1.21,0,1.97-.54,1.97-2.06v-1.9c0-1.52-.76-2.06-1.97-2.06h-4.47v6.02h4.47Z"></path><path class="cls-10" d="m480.55,34.05l-1.39-3.52h-.51l.25,3.71v11.67h-4.25v-22.13h4.95l5.58,11.86,1.39,3.52h.51l-.25-3.71v-11.67h4.25v22.13h-4.95l-5.58-11.86Z"></path><path class="cls-10" d="m495.39,45.91v-22.13h13.69v3.96h-9.16v5.01h7.77v3.93h-7.77v5.26h9.16v3.96h-13.69Z"></path><path class="cls-10" d="m521.26,27.74v18.17h-4.53v-18.17h-5.29v-3.96h15.12v3.96h-5.29Z"></path><path class="cls-10" d="m542.13,34.05l-1.39-3.52h-.51l.25,3.71v11.67h-4.25v-22.13h4.95l5.58,11.86,1.39,3.52h.51l-.25-3.71v-11.67h4.25v22.13h-4.95l-5.58-11.86Z"></path><path class="cls-10" d="m556.97,45.91v-22.13h13.69v3.96h-9.16v5.01h7.77v3.93h-7.77v5.26h9.16v3.96h-13.69Z"></path><path class="cls-10" d="m582.84,27.74v18.17h-4.53v-18.17h-5.29v-3.96h15.12v3.96h-5.29Z"></path><path class="cls-10" d="m594.32,45.91l-4.44-22.13h4.47l2.09,12.24.57,4.91h.51l.57-4.79,2.54-12.36h4.98l2.57,12.36.57,4.79h.51l.57-4.91,2.06-12.24h4.31l-4.63,22.13h-5.13l-2.6-12.74-.57-4.41h-.51l-.57,4.41-2.6,12.74h-5.26Z"></path><path class="cls-10" d="m617.72,34.84c0-8.27,3.49-11.44,8.78-11.44s8.78,3.17,8.78,11.44-3.49,11.44-8.78,11.44-8.78-3.17-8.78-11.44Zm12.74,2.88v-5.77c0-3.01-1.46-4.56-3.96-4.56s-3.96,1.55-3.96,4.56v5.77c0,3.01,1.46,4.57,3.96,4.57s3.96-1.55,3.96-4.57Z"></path><path class="cls-10" d="m643.38,45.91h-4.53v-22.13h9.57c3.96,0,6.09,2.69,6.09,6.88,0,3.23-1.27,5.58-3.65,6.47l3.87,8.78h-4.91l-3.42-8.37h-3.01v8.37Zm4.47-12.14c1.2,0,1.96-.54,1.96-2.06v-1.9c0-1.52-.76-2.06-1.96-2.06h-4.47v6.02h4.47Z"></path><path class="cls-10" d="m665.29,36.11l-2.57,3.49v6.31h-4.53v-22.13h4.53v7.16l-.19,3.52h.51l2.19-3.52,4.82-7.16h5.14l-6.69,9.22,7.26,12.9h-5.33l-5.14-9.8Z"></path><path class="cls-10" d="m688.02,45.91l-4.44-22.13h4.47l2.09,12.24.57,4.91h.51l.57-4.79,2.54-12.36h4.98l2.57,12.36.57,4.79h.51l.57-4.91,2.06-12.24h4.31l-4.63,22.13h-5.13l-2.6-12.74-.57-4.41h-.51l-.57,4.41-2.6,12.74h-5.26Z"></path><path class="cls-10" d="m724.33,45.91l-1.36-5.42h-6.78l-1.36,5.42h-4.34l6.28-22.13h5.77l6.28,22.13h-4.47Zm-3.84-14.17l-.7-3.84h-.51l-.7,3.84-1.3,5.1h4.56l-1.36-5.1Z"></path><path class="cls-10" d="m730.26,42.8l2.92-2.92c1.24,1.59,2.98,2.44,4.98,2.44s3.17-.92,3.17-2.79c0-1.52-.73-2.35-2.35-2.66l-2.03-.38c-4.06-.76-5.96-2.82-5.96-6.5,0-4.28,2.6-6.59,7.48-6.59,3.17,0,5.48.98,7.13,3.04l-2.92,2.92c-1.11-1.36-2.44-2-4.28-2-2,0-2.88.73-2.88,2.41,0,1.46.67,2.19,2.22,2.5l2.03.41c4.34.89,6.09,2.6,6.09,6.34,0,4.69-2.76,7.26-7.8,7.26-3.36,0-5.9-1.14-7.8-3.49Z"></path><path class="cls-10" d="m768.28,45.91l-1.36-5.42h-6.78l-1.36,5.42h-4.34l6.28-22.13h5.77l6.28,22.13h-4.47Zm-3.84-14.17l-.7-3.84h-.51l-.7,3.84-1.3,5.1h4.56l-1.36-5.1Z"></path><path class="cls-10" d="m794.15,36.68h-7.36v9.23h-4.53v-22.13h4.53v8.97h7.36v-8.97h4.53v22.13h-4.53v-9.23Z"></path><path class="cls-10" d="m802.27,45.91v-3.58h2.6v-14.96h-2.6v-3.58h9.73v3.58h-2.6v14.96h2.6v3.58h-9.73Z"></path><path class="cls-10" d="m828.21,42.42h-.51c-.28,2.25-2.06,3.87-4.98,3.87-4.19,0-7.89-2.98-7.89-11.35s3.49-11.54,8.78-11.54c3.93,0,6.56,1.74,8.02,5.1l-3.71,2.12c-.6-1.97-1.93-3.23-4.34-3.23s-3.93,1.55-3.93,4.56v5.77c0,3.01,1.55,4.53,4.06,4.53,2.28,0,3.96-1.17,3.96-3.46v-1.3h-3.65v-3.8h7.99v12.21h-3.8v-3.49Z"></path><path class="cls-10" d="m847.97,36.68h-7.36v9.23h-4.53v-22.13h4.53v8.97h7.36v-8.97h4.53v22.13h-4.53v-9.23Z"></path><path class="cls-10" d="m859.96,45.91l-4.44-22.13h4.47l2.09,12.24.57,4.91h.51l.57-4.79,2.54-12.36h4.98l2.57,12.36.57,4.79h.51l.57-4.91,2.06-12.24h4.31l-4.63,22.13h-5.13l-2.6-12.74-.57-4.41h-.51l-.57,4.41-2.6,12.74h-5.26Z"></path><path class="cls-10" d="m896.26,45.91l-1.36-5.42h-6.78l-1.36,5.42h-4.34l6.28-22.13h5.77l6.28,22.13h-4.47Zm-3.84-14.17l-.7-3.84h-.51l-.7,3.84-1.3,5.1h4.56l-1.36-5.1Z"></path><path class="cls-10" d="m906.06,45.91v-8.34l-6.75-13.79h4.95l3.93,9.07h.51l3.8-9.07h4.85l-6.75,13.79v8.34h-4.53Z"></path></g><g><path class="cls-10" d="m365.34,127.35l-1.19-3h-.43l.22,3.16v9.93h-3.62v-18.84h4.21l4.75,10.1,1.19,3h.43l-.22-3.16v-9.93h3.62v18.84h-4.21l-4.75-10.1Z"></path><path class="cls-10" d="m377.32,128.03c0-7.05,2.97-9.74,7.48-9.74s7.48,2.7,7.48,9.74-2.97,9.74-7.48,9.74-7.48-2.7-7.48-9.74Zm10.85,2.46v-4.91c0-2.56-1.24-3.89-3.37-3.89s-3.37,1.32-3.37,3.89v4.91c0,2.56,1.24,3.89,3.37,3.89s3.37-1.32,3.37-3.89Z"></path><path class="cls-10" d="m399.17,137.45h-3.86v-18.84h8.15c3.37,0,5.18,2.29,5.18,5.86,0,2.75-1.08,4.75-3.1,5.51l3.29,7.48h-4.18l-2.92-7.13h-2.56v7.13Zm3.81-10.34c1.03,0,1.67-.46,1.67-1.75v-1.62c0-1.3-.65-1.75-1.67-1.75h-3.81v5.13h3.81Z"></path><path class="cls-10" d="m424.38,127.62l.22-3.16h-.43l-1.16,3-3.13,6.83-3.1-6.83-1.16-3h-.43l.22,3.16v9.83h-3.62v-18.84h4.05l2.56,5.61,1.4,4.02h.27l1.4-4.02,2.51-5.61h4.02v18.84h-3.62v-9.83Z"></path><path class="cls-10" d="m442.2,137.45l-1.16-4.62h-5.78l-1.16,4.62h-3.7l5.34-18.84h4.91l5.34,18.84h-3.81Zm-3.27-12.07l-.59-3.27h-.43l-.59,3.27-1.11,4.35h3.89l-1.16-4.35Z"></path><path class="cls-10" d="m448.39,137.45v-18.84h3.86v15.47h6.4v3.37h-10.26Z"></path><path class="cls-10" d="m477.57,137.45l-1.16-4.62h-5.78l-1.16,4.62h-3.7l5.34-18.84h4.91l5.34,18.84h-3.81Zm-3.27-12.07l-.59-3.27h-.43l-.59,3.27-1.11,4.35h3.89l-1.16-4.35Z"></path><path class="cls-10" d="m496.36,127.62l.22-3.16h-.43l-1.16,3-3.13,6.83-3.1-6.83-1.16-3h-.43l.22,3.16v9.83h-3.62v-18.84h4.05l2.56,5.61,1.4,4.02h.27l1.4-4.02,2.51-5.61h4.02v18.84h-3.62v-9.83Z"></path><path class="cls-10" d="m503.03,128.03c0-7.05,2.97-9.74,7.48-9.74s7.48,2.7,7.48,9.74-2.97,9.74-7.48,9.74-7.48-2.7-7.48-9.74Zm10.85,2.46v-4.91c0-2.56-1.24-3.89-3.37-3.89s-3.37,1.32-3.37,3.89v4.91c0,2.56,1.24,3.89,3.37,3.89s3.37-1.32,3.37-3.89Z"></path><path class="cls-10" d="m524.77,118.61v12.23c0,2.48.73,3.51,2.92,3.51s2.92-1.03,2.92-3.51v-12.23h3.86v11.71c0,5.29-1.75,7.45-6.78,7.45s-6.78-2.16-6.78-7.45v-11.71h3.86Z"></path><path class="cls-10" d="m543.05,127.35l-1.19-3h-.43l.22,3.16v9.93h-3.62v-18.84h4.21l4.75,10.1,1.19,3h.43l-.22-3.16v-9.93h3.62v18.84h-4.21l-4.75-10.1Z"></path><path class="cls-10" d="m562.89,121.98v15.47h-3.86v-15.47h-4.51v-3.37h12.88v3.37h-4.51Z"></path><path class="cls-10" d="m574.99,128.03c0-7.05,2.97-9.74,7.48-9.74s7.48,2.7,7.48,9.74-2.97,9.74-7.48,9.74-7.48-2.7-7.48-9.74Zm10.85,2.46v-4.91c0-2.56-1.24-3.89-3.37-3.89s-3.37,1.32-3.37,3.89v4.91c0,2.56,1.24,3.89,3.37,3.89s3.37-1.32,3.37-3.89Z"></path><path class="cls-10" d="m592.97,137.45v-18.84h11.34v3.37h-7.48v4.26h6.34v3.35h-6.34v7.85h-3.86Z"></path><path class="cls-10" d="m612.33,137.45v-3.05h2.21v-12.74h-2.21v-3.05h8.29v3.05h-2.21v12.74h2.21v3.05h-8.29Z"></path><path class="cls-10" d="m628.69,127.35l-1.19-3h-.43l.22,3.16v9.93h-3.62v-18.84h4.21l4.75,10.1,1.19,3h.43l-.22-3.16v-9.93h3.62v18.84h-4.21l-4.75-10.1Z"></path><path class="cls-10" d="m648.53,121.98v15.47h-3.86v-15.47h-4.51v-3.37h12.88v3.37h-4.51Z"></path><path class="cls-10" d="m655.56,137.45v-18.84h11.66v3.37h-7.8v4.26h6.61v3.35h-6.61v4.48h7.8v3.37h-11.66Z"></path><path class="cls-10" d="m674.24,137.45h-3.86v-18.84h8.15c3.37,0,5.18,2.29,5.18,5.86,0,2.75-1.08,4.75-3.1,5.51l3.29,7.48h-4.18l-2.92-7.13h-2.56v7.13Zm3.81-10.34c1.03,0,1.67-.46,1.67-1.75v-1.62c0-1.3-.65-1.75-1.67-1.75h-3.81v5.13h3.81Z"></path><path class="cls-10" d="m691.87,127.35l-1.19-3h-.43l.22,3.16v9.93h-3.62v-18.84h4.21l4.75,10.1,1.19,3h.43l-.22-3.16v-9.93h3.62v18.84h-4.21l-4.75-10.1Z"></path><path class="cls-10" d="m704.51,137.45v-18.84h11.66v3.37h-7.8v4.26h6.61v3.35h-6.61v4.48h7.8v3.37h-11.66Z"></path><path class="cls-10" d="m726.54,121.98v15.47h-3.86v-15.47h-4.51v-3.37h12.88v3.37h-4.51Z"></path><path class="cls-10" d="m739.28,118.61h6.61c4.59,0,7.37,2.67,7.37,9.42s-2.78,9.42-7.37,9.42h-6.61v-18.84Zm6.61,15.47c2.13,0,3.27-1.21,3.27-3.78v-4.53c0-2.56-1.13-3.78-3.27-3.78h-2.75v12.09h2.75Z"></path><path class="cls-10" d="m756.29,137.45v-18.84h11.66v3.37h-7.8v4.26h6.61v3.35h-6.61v4.48h7.8v3.37h-11.66Z"></path><path class="cls-10" d="m775.14,137.45l-5.53-18.84h4l3.02,11.44.59,3.89h.43l.59-3.89,2.97-11.44h3.89l-5.42,18.84h-4.54Z"></path><path class="cls-10" d="m786.64,137.45v-3.05h2.21v-12.74h-2.21v-3.05h8.29v3.05h-2.21v12.74h2.21v3.05h-8.29Z"></path><path class="cls-10" d="m797.33,128.16c0-7.04,3.05-9.88,7.56-9.88,3.4,0,5.16,1.43,6.42,4.4l-3.35,1.73c-.41-1.62-1.03-2.73-3.08-2.73s-3.46,1.3-3.46,3.89v4.91c0,2.59,1.32,3.89,3.46,3.89s2.81-1.3,3.29-2.92l3.18,1.84c-1.29,2.83-3.08,4.48-6.48,4.48-4.51,0-7.56-2.56-7.56-9.61Z"></path><path class="cls-10" d="m813.88,137.45v-18.84h11.66v3.37h-7.8v4.26h6.61v3.35h-6.61v4.48h7.8v3.37h-11.66Z"></path><path class="cls-10" d="m827.57,134.8l2.48-2.48c1.05,1.35,2.54,2.08,4.24,2.08s2.7-.78,2.7-2.38c0-1.3-.62-2-2-2.27l-1.73-.32c-3.46-.65-5.08-2.4-5.08-5.53,0-3.64,2.21-5.61,6.37-5.61,2.7,0,4.67.84,6.07,2.59l-2.48,2.48c-.95-1.16-2.08-1.7-3.64-1.7-1.7,0-2.46.62-2.46,2.05,0,1.24.57,1.86,1.89,2.13l1.73.35c3.7.76,5.18,2.21,5.18,5.4,0,4-2.35,6.18-6.64,6.18-2.86,0-5.02-.97-6.64-2.97Z"></path></g><g><path class="cls-10" d="m389.22,462.59h-6.26v7.85h-3.86v-18.84h3.86v7.64h6.26v-7.64h3.86v18.84h-3.86v-7.85Z"></path><path class="cls-10" d="m396.13,470.45v-3.05h2.21v-12.74h-2.21v-3.05h8.29v3.05h-2.21v12.74h2.21v3.05h-8.29Z"></path><path class="cls-10" d="m418.21,467.48h-.43c-.24,1.92-1.75,3.29-4.24,3.29-3.56,0-6.72-2.54-6.72-9.66s2.97-9.83,7.48-9.83c3.35,0,5.59,1.48,6.83,4.35l-3.16,1.81c-.51-1.67-1.65-2.75-3.7-2.75s-3.35,1.32-3.35,3.89v4.91c0,2.56,1.32,3.86,3.46,3.86,1.94,0,3.37-1,3.37-2.94v-1.11h-3.1v-3.24h6.8v10.39h-3.24v-2.97Z"></path><path class="cls-10" d="m435.03,462.59h-6.26v7.85h-3.86v-18.84h3.86v7.64h6.26v-7.64h3.86v18.84h-3.86v-7.85Z"></path><path class="cls-10" d="m458.79,470.45l-1.16-4.62h-5.78l-1.16,4.62h-3.7l5.34-18.84h4.91l5.34,18.84h-3.81Zm-3.27-12.07l-.59-3.27h-.43l-.59,3.27-1.11,4.35h3.89l-1.16-4.35Z"></path><path class="cls-10" d="m477.58,460.62l.22-3.16h-.43l-1.16,3-3.13,6.83-3.1-6.83-1.16-3h-.43l.22,3.16v9.83h-3.62v-18.84h4.05l2.56,5.61,1.4,4.02h.27l1.4-4.02,2.51-5.61h4.02v18.84h-3.62v-9.83Z"></path><path class="cls-10" d="m484.26,461.03c0-7.05,2.97-9.74,7.48-9.74s7.48,2.7,7.48,9.74-2.97,9.74-7.48,9.74-7.48-2.7-7.48-9.74Zm10.85,2.46v-4.91c0-2.56-1.24-3.89-3.37-3.89s-3.37,1.32-3.37,3.89v4.91c0,2.56,1.24,3.89,3.37,3.89s3.37-1.32,3.37-3.89Z"></path><path class="cls-10" d="m505.99,451.6v12.23c0,2.48.73,3.51,2.92,3.51s2.92-1.03,2.92-3.51v-12.23h3.86v11.71c0,5.29-1.75,7.45-6.78,7.45s-6.78-2.16-6.78-7.45v-11.71h3.86Z"></path><path class="cls-10" d="m524.27,460.35l-1.19-3h-.43l.22,3.16v9.93h-3.62v-18.84h4.21l4.75,10.1,1.19,3h.43l-.22-3.16v-9.93h3.62v18.84h-4.21l-4.75-10.1Z"></path><path class="cls-10" d="m544.11,454.98v15.47h-3.86v-15.47h-4.51v-3.37h12.88v3.37h-4.51Z"></path><path class="cls-10" d="m556.21,461.03c0-7.05,2.97-9.74,7.48-9.74s7.48,2.7,7.48,9.74-2.97,9.74-7.48,9.74-7.48-2.7-7.48-9.74Zm10.85,2.46v-4.91c0-2.56-1.24-3.89-3.37-3.89s-3.37,1.32-3.37,3.89v4.91c0,2.56,1.24,3.89,3.37,3.89s3.37-1.32,3.37-3.89Z"></path><path class="cls-10" d="m574.19,470.45v-18.84h11.34v3.37h-7.48v4.26h6.34v3.35h-6.34v7.85h-3.86Z"></path><path class="cls-10" d="m593.55,470.45v-3.05h2.21v-12.74h-2.21v-3.05h8.29v3.05h-2.21v12.74h2.21v3.05h-8.29Z"></path><path class="cls-10" d="m609.91,460.35l-1.19-3h-.43l.22,3.16v9.93h-3.62v-18.84h4.21l4.75,10.1,1.19,3h.43l-.22-3.16v-9.93h3.62v18.84h-4.21l-4.75-10.1Z"></path><path class="cls-10" d="m629.76,454.98v15.47h-3.86v-15.47h-4.51v-3.37h12.88v3.37h-4.51Z"></path><path class="cls-10" d="m636.78,470.45v-18.84h11.66v3.37h-7.8v4.26h6.61v3.35h-6.61v4.48h7.8v3.37h-11.66Z"></path><path class="cls-10" d="m655.46,470.45h-3.86v-18.84h8.15c3.37,0,5.18,2.29,5.18,5.86,0,2.75-1.08,4.75-3.1,5.51l3.29,7.48h-4.18l-2.92-7.13h-2.56v7.13Zm3.81-10.34c1.03,0,1.67-.46,1.67-1.75v-1.62c0-1.3-.65-1.75-1.67-1.75h-3.81v5.13h3.81Z"></path><path class="cls-10" d="m673.09,460.35l-1.19-3h-.43l.22,3.16v9.93h-3.62v-18.84h4.21l4.75,10.1,1.19,3h.43l-.22-3.16v-9.93h3.62v18.84h-4.21l-4.75-10.1Z"></path><path class="cls-10" d="m685.73,470.45v-18.84h11.66v3.37h-7.8v4.26h6.61v3.35h-6.61v4.48h7.8v3.37h-11.66Z"></path><path class="cls-10" d="m707.76,454.98v15.47h-3.86v-15.47h-4.51v-3.37h12.88v3.37h-4.51Z"></path><path class="cls-10" d="m720.5,451.6h6.61c4.59,0,7.37,2.67,7.37,9.42s-2.78,9.42-7.37,9.42h-6.61v-18.84Zm6.61,15.47c2.13,0,3.27-1.21,3.27-3.78v-4.53c0-2.56-1.13-3.78-3.27-3.78h-2.75v12.09h2.75Z"></path><path class="cls-10" d="m737.51,470.45v-18.84h11.66v3.37h-7.8v4.26h6.61v3.35h-6.61v4.48h7.8v3.37h-11.66Z"></path><path class="cls-10" d="m756.36,470.45l-5.53-18.84h3.99l3.02,11.44.59,3.89h.43l.59-3.89,2.97-11.44h3.89l-5.42,18.84h-4.54Z"></path><path class="cls-10" d="m767.86,470.45v-3.05h2.21v-12.74h-2.21v-3.05h8.29v3.05h-2.21v12.74h2.21v3.05h-8.29Z"></path><path class="cls-10" d="m778.55,461.16c0-7.04,3.05-9.88,7.56-9.88,3.4,0,5.16,1.43,6.42,4.4l-3.35,1.73c-.41-1.62-1.03-2.73-3.08-2.73s-3.46,1.3-3.46,3.89v4.91c0,2.59,1.32,3.89,3.46,3.89s2.81-1.3,3.29-2.92l3.18,1.84c-1.29,2.83-3.08,4.48-6.48,4.48-4.51,0-7.56-2.56-7.56-9.61Z"></path><path class="cls-10" d="m795.1,470.45v-18.84h11.66v3.37h-7.8v4.26h6.61v3.35h-6.61v4.48h7.8v3.37h-11.66Z"></path><path class="cls-10" d="m808.79,467.8l2.48-2.48c1.05,1.35,2.54,2.08,4.24,2.08s2.7-.78,2.7-2.38c0-1.3-.62-2-2-2.27l-1.73-.32c-3.46-.65-5.08-2.4-5.08-5.53,0-3.64,2.21-5.61,6.37-5.61,2.7,0,4.67.84,6.07,2.59l-2.48,2.48c-.95-1.16-2.08-1.7-3.64-1.7-1.7,0-2.46.62-2.46,2.05,0,1.24.57,1.86,1.89,2.13l1.73.35c3.7.76,5.18,2.21,5.18,5.4,0,4-2.35,6.18-6.64,6.18-2.86,0-5.02-.97-6.64-2.97Z"></path></g><g><line class="cls-5" x1="1137.94" y1="88" x2="1147.94" y2="88"></line><line class="cls-5" x1="1142.94" y1="81.57" x2="1142.94" y2="94.43"></line></g><circle class="cls-14" cx="1053.94" cy="43.43" r="6.43"></circle><circle class="cls-6" cx="168.37" cy="31" r="6.43"></circle><polygon class="cls-7" points="90.52 80.61 93.6 86 87.4 85.97 81.19 85.95 84.32 80.59 87.44 75.23 90.52 80.61"></polygon></g></svg>